<mxfile host="app.diagrams.net" modified="2022-12-29T21:27:51.818Z" agent="5.0 (Macintosh; Intel Mac OS X 10_15_7) AppleWebKit/537.36 (KHTML, like Gecko) Chrome/108.0.0.0 Safari/537.36" etag="Tn0MssmwX2RWb7NmwvAk" version="20.7.4" type="github">
  <diagram id="PNLonHm5jULHA3bJ2cQa" name="Page-1">
    <mxGraphModel dx="794" dy="1135" grid="1" gridSize="10" guides="1" tooltips="1" connect="1" arrows="1" fold="1" page="1" pageScale="1" pageWidth="850" pageHeight="1100" math="0" shadow="0">
      <root>
        <mxCell id="0" />
        <mxCell id="1" parent="0" />
        <mxCell id="fWEDv3AJBoJ18WNna-wo-1" value="RC" style="ellipse;whiteSpace=wrap;html=1;aspect=fixed;fontSize=128;labelBackgroundColor=#000000;fontColor=#FFFFFF;fillColor=#000000;movable=1;resizable=1;rotatable=1;deletable=1;editable=1;connectable=1;" parent="1" vertex="1">
          <mxGeometry x="280" y="294" width="275" height="275" as="geometry" />
        </mxCell>
      </root>
    </mxGraphModel>
  </diagram>
</mxfile>
